<svg id="Layer_1" data-name="Layer 1" xmlns="http://www.w3.org/2000/svg" viewBox="0 0 275 232"><g id="_3SksYi.tif" data-name="3SksYi.tif"><path d="M102.7,125.45l-9.63-15.4a50.84,50.84,0,0,1,18.33-7.62c33.25-7.58,67.75,13.32,76.56,46.29.09.31.19.62.26.94C189.63,156,189.63,156,196,156q20.25,0,40.48,0c9.65,0,18.75-8.19,19.69-17.67,1.11-11-5.77-21.58-16-22.86-6.28-.78-12.81.36-19.22.63l-1.76.09c1.26-4.69,2.48-9.09,3.62-13.51,6.17-24,1.56-45.59-14.61-64.32-10.94-12.68-25.14-19.71-41.8-21.63C146.54,14.45,128.35,19,112.19,31,100.8,39.38,93.33,50.65,89.26,64.2q-.8,2.63-1.46,5.3c-.53,2.11-1.56,2.45-3.78,2-6.94-1.39-13.94-3.25-20.95-3.39-24.63-.48-44,19.51-44.62,44.19-.52,22.17,14.78,41.53,34.82,45.94a40.83,40.83,0,0,0,8.31,1c9.93.12,19.87,0,29.79.11,2.65,0,3.95-.66,4.85-3.36A30.32,30.32,0,0,1,124,135.3c15.53-.24,28.36,11,30.7,26.79,2.65,17.83-11.4,35-30.38,34.69-12.09-.22-21.18-6.15-26.63-17-1.46-2.9-3-3.77-6.14-3.71-10.25.19-20.51.08-30.76.07C31,176.12,4.23,152,.28,122.5-4.24,88.77,17.9,57.57,52.42,51.91c6.77-1.11,13.53-1.26,20.18.58,2.92.82,4.23-.13,5.42-2.76C89.09,25.08,107.8,9.09,134,3.05,162.54-3.52,189.22,1.46,212.38,20,227.87,32.38,236.87,49,240.71,68.44c1.86,9.42,2.89,19,1.33,28.56-.32,2,.92,2.3,2.38,2.67a42.51,42.51,0,0,1,21.18,12.46c11.36,12.32,12.81,29.14,3.59,43.88-7.27,11.62-17.66,18-31.69,17.83-14.79-.12-29.58,0-44.37-.05-2.63,0-3.85.65-4.37,3.69-3.54,20.62-13.83,37-32.49,46.93-21.19,11.3-42.26,9.66-63.19-2.79L102.8,206c11.85,7.51,24.33,9.52,37.58,5.5,10.11-3.07,17.84-9.64,24.13-17.76,11.45-14.76,11.8-37.19,0-53.78C152.94,123.71,132,112.46,102.7,125.45Z"/></g></svg>