<svg id="Layer_1" data-name="Layer 1" xmlns="http://www.w3.org/2000/svg" viewBox="0 0 271 255"><g id="DI6aQh.tif"><path d="M160.3-.08h37.82c1,0,2.4-.44,3,.68s-.45,2-1,2.91l-50.2,79.74c-.69,1.09-2,2.27-1.4,3.46s2.39.54,3.65.55c15.6,0,31.21,0,46.81,0,1.25,0,2.94-.65,3.64.7s-.85,2.38-1.53,3.39q-21.28,31.64-42.7,63.18-33,48.67-66,97.34c-.47.69-.94,1.38-1.4,2.09s-1.29,1.74-2.29,1.12c-.79-.49-.28-1.45,0-2.28q10.57-31.73,21.06-63.46c6.09-18.45,12.06-36.93,18.2-55.35.89-2.66.36-3.38-2.39-3.39-15.49,0-31-.21-46.46-.34-4.31,0-4.27-.08-2.85-4.27Q93,76.67,109.71,27.3c2.85-8.4,5.86-16.75,8.55-25.2C118.94,0,120.2,0,121.77,0H160.3Z"/><path d="M78.59,46.44a6.65,6.65,0,0,1,6.2,4.12c1.25,2.86,1.42,5.69-1,8C72.53,69.4,62.32,81.26,51.33,92.36c-8.77,8.87-17.31,18-26,26.89-5.44,5.59-5.39,9.05.18,14.89q29.06,30.47,58,61a12.13,12.13,0,0,1,1.93,2.59c1.74,3.24,1,7.53-1.64,9.52s-6.64,1.62-9.45-1.15Q61,193,47.78,179.75c-9.11-9-18.25-18.06-27.32-27.14A245.93,245.93,0,0,1,2.63,132.15c-3.62-4.52-2.54-8.7,1.58-12.83,4.88-4.9,9.44-10.14,14.32-15.06Q45.91,76.68,73.24,49C74.71,47.56,76.34,46.38,78.59,46.44Z"/><path d="M271.26,126.44c.07,2.72-1.22,4.77-3.07,6.63-10.31,10.38-20.81,20.57-30.79,31.25-11.71,12.53-23.85,24.63-35.63,37.08-1.41,1.49-2.82,3-4.29,4.37-3.15,3-7.26,3.35-10,.83-2.54-2.31-2.92-7.2-.4-10.22,2.68-3.22,5.72-6.14,8.64-9.16q26.48-27.43,53-54.87c3.75-3.88,3.93-7.84.19-11.7-11.41-11.79-23-23.46-34.45-35.16q-13-13.21-26-26.4a7.26,7.26,0,0,1-.17-10.58c2.83-2.92,6.88-2.78,10.16.51q17.17,17.17,34.28,34.44,14.47,14.64,28.86,29.36c2.68,2.73,5.29,5.52,7.89,8.32A7.12,7.12,0,0,1,271.26,126.44Z"/></g></svg>